<?xml version="1.0" encoding="utf-8"?>
<!-- Generator: Adobe Illustrator 25.2.3, SVG Export Plug-In . SVG Version: 6.00 Build 0)  -->
<svg version="1.1" id="Layer_1" xmlns="http://www.w3.org/2000/svg" xmlns:xlink="http://www.w3.org/1999/xlink" x="0px" y="0px"
	 viewBox="0 0 100 100" style="enable-background:new 0 0 100 100;" xml:space="preserve">
<style type="text/css">
	.st0{fill:#FFFFFF; opacity:0;}
</style>
<path class="st0" d="M0.9,14.3h41c0.5,0,0.9,0.4,0.9,0.9v41c0,0.5-0.4,0.9-0.9,0.9h-41c-0.5,0-0.9-0.4-0.9-0.9v-41
	C0,14.7,0.4,14.3,0.9,14.3z">
	<animate attributeName="opacity" values="0;1;0" dur="1s" repeatCount="indefinite" begin="0" />
</path>
<path class="st0" d="M50.9,35.7h48.2c0.5,0,0.9,0.4,0.9,0.9v33.9c0,0.5-0.4,0.9-0.9,0.9H50.9c-0.5,0-0.9-0.4-0.9-0.9V36.6
	C50,36.1,50.4,35.7,50.9,35.7z">
	<animate attributeName="opacity" values="0;1;0" dur="1s" repeatCount="indefinite" begin="0.25" />
</path>
<path class="st0" d="M15.2,64.3H42c0.5,0,0.9,0.4,0.9,0.9V92c0,0.5-0.4,0.9-0.9,0.9H15.2c-0.5,0-0.9-0.4-0.9-0.9V65.3
	C14.3,64.7,14.7,64.3,15.2,64.3z">
	<animate attributeName="opacity" values="0;1;0" dur="1s" repeatCount="indefinite" begin="0.5" />
</path>
<path class="st0" d="M50.9,7.1h19.6c0.5,0,0.9,0.4,0.9,0.9v19.6c0,0.5-0.4,0.9-0.9,0.9H50.9c-0.5,0-0.9-0.4-0.9-0.9V8
	C50,7.5,50.4,7.1,50.9,7.1z">
	<animate attributeName="opacity" values="0;1;0" dur="1s" repeatCount="indefinite" begin="0.75" />
</path>
</svg>
