<svg height='100px' width='100px'  fill="#ffffff" xmlns="http://www.w3.org/2000/svg" data-name="Layer 1" viewBox="0 0 100 100" x="0px" y="0px"><title>help and info</title><path d="M71.71,0H28.29A28.37,28.37,0,0,0,0,28.29V71.71A28.37,28.37,0,0,0,28.29,100H71.71A28.37,28.37,0,0,0,100,71.71V28.29A28.37,28.37,0,0,0,71.71,0ZM49,74.91a7.87,7.87,0,0,1-1.51-.4,4.67,4.67,0,0,1-3.16-4.35c0-.32,0-0.65,0-1q0-11.91,0-23.83A5.42,5.42,0,0,1,48,39.95a5.83,5.83,0,0,1,6.75,1.93,4.9,4.9,0,0,1,1,3.06q0,6.16,0,12.33h0c0,4-.08,8,0,12A5.67,5.67,0,0,1,49,74.91Zm0.88-37.64a6.14,6.14,0,1,1,6.2-6.11A6.14,6.14,0,0,1,49.93,37.27Z"></path></svg>