<svg xmlns="http://www.w3.org/2000/svg" width="235" height="50" viewBox="0 0 235 50">
    <g fill="none">
        <path fill="#0D0D0D" d="M68.7 2.133h3.333V14.75c-.004.798.143 1.59.434 2.333.554 1.454 1.68 2.617 3.116 3.217.794.322 1.644.48 2.5.467.857.017 1.708-.142 2.5-.467.718-.294 1.366-.737 1.9-1.3.533-.546.942-1.2 1.2-1.917.286-.744.427-1.536.417-2.333V2.133h1.45V14.75c-.02.964-.205 1.917-.55 2.817-.324.872-.842 1.659-1.517 2.3-.763.702-1.666 1.236-2.65 1.566-1.244.42-2.553.618-3.866.584-1.21.026-2.413-.172-3.55-.584-.965-.339-1.85-.872-2.6-1.566-.719-.648-1.287-1.444-1.667-2.334-.356-.913-.537-1.886-.533-2.866L68.7 2.133zM100.517 20.783c.479 0 .956-.067 1.416-.2.457-.108.888-.306 1.267-.583.365-.248.672-.572.9-.95.227-.401.342-.856.333-1.317.027-.59-.137-1.175-.466-1.666-.323-.49-.73-.918-1.2-1.267-.526-.41-1.083-.778-1.667-1.1l-1.95-1.017c-.667-.35-1.317-.7-1.95-1.083-.603-.356-1.162-.78-1.667-1.267-.491-.439-.898-.964-1.2-1.55-.323-.604-.484-1.281-.466-1.966-.01-.711.132-1.416.416-2.067.278-.639.693-1.208 1.217-1.667.59-.487 1.27-.855 2-1.083.844-.248 1.721-.36 2.6-.333.826-.012 1.65.09 2.45.3.687.169 1.336.462 1.917.866.545.376 1.014.85 1.383 1.4.4.595.71 1.247.917 1.934l-1.667.766c-.169-.588-.421-1.15-.75-1.666-.27-.455-.613-.86-1.017-1.2-.45-.346-.966-.596-1.516-.734-.58-.225-1.195-.35-1.817-.366-.566-.017-1.13.068-1.667.25-.419.154-.808.38-1.15.666-.29.267-.523.59-.683.95-.148.33-.228.688-.233 1.05 0 .505.164.996.466 1.4.35.465.772.87 1.25 1.2.56.412 1.15.78 1.767 1.1l2.017 1.067c.683.367 1.35.733 2.016 1.133.63.368 1.222.798 1.767 1.284.494.432.91.945 1.233 1.516.318.564.479 1.203.467 1.85.011.75-.136 1.495-.433 2.184-.292.685-.744 1.29-1.317 1.766-.634.562-1.37.997-2.167 1.284-.982.303-2.005.449-3.033.433-.843.011-1.684-.09-2.5-.3-.693-.198-1.35-.501-1.95-.9-.558-.39-1.043-.876-1.433-1.433-.42-.588-.75-1.234-.984-1.917l1.75-.717c.187.594.462 1.156.817 1.667.665.965 1.624 1.69 2.733 2.067.58.164 1.182.237 1.784.216zM128.467 11.933c-.021 1.245.188 2.482.616 3.65.367 1.014.934 1.943 1.667 2.734.733.736 1.614 1.31 2.583 1.683 1.012.406 2.094.61 3.184.6.676.001 1.345-.135 1.966-.4.632-.265 1.226-.613 1.767-1.033 1.054-.818 1.914-1.86 2.517-3.05l1.383.866c-.413.675-.893 1.306-1.433 1.884-.552.642-1.191 1.203-1.9 1.666-.77.493-1.607.874-2.484 1.134-.987.276-2.008.411-3.033.4-1.5.02-2.988-.251-4.383-.8-1.241-.508-2.373-1.25-3.334-2.184-1.892-1.876-2.949-4.435-2.933-7.1-.006-.917.112-1.83.35-2.716.227-.854.57-1.672 1.017-2.434.461-.765 1.021-1.465 1.666-2.083 1.342-1.3 3.004-2.22 4.817-2.667.984-.264 1.998-.404 3.017-.416.956.004 1.906.156 2.816.45.837.268 1.637.637 2.384 1.1.704.476 1.347 1.035 1.916 1.666.559.543 1.061 1.14 1.5 1.784L142.7 7.6c-.626-1.33-1.55-2.5-2.7-3.417-1.007-.728-2.224-1.108-3.467-1.083-1.096-.017-2.184.187-3.2.6-.968.405-1.842 1.007-2.566 1.767-.733.81-1.3 1.755-1.667 2.783-.436 1.178-.65 2.427-.633 3.683zM162.233 22.017c-2.833.033-5.567-1.044-7.616-3-.962-.957-1.73-2.088-2.267-3.334-.555-1.26-.839-2.623-.833-4 0-.908.129-1.811.383-2.683.25-.822.61-1.606 1.067-2.333.463-.749 1.024-1.432 1.666-2.034.658-.606 1.385-1.132 2.167-1.566.81-.442 1.672-.778 2.567-1 1.89-.49 3.875-.49 5.766 0 1.771.438 3.4 1.321 4.734 2.566.637.607 1.196 1.29 1.666 2.034.463.748.822 1.555 1.067 2.4.249.872.372 1.776.367 2.683.01 1.822-.486 3.61-1.434 5.167-.46.765-1.02 1.466-1.666 2.083-.646.65-1.374 1.21-2.167 1.667-.805.459-1.668.807-2.567 1.033-.948.235-1.923.341-2.9.317zm0-.967c1.027.022 2.043-.22 2.95-.7.867-.462 1.61-1.125 2.167-1.933.61-.898 1.056-1.897 1.317-2.95.31-1.215.461-2.464.45-3.717.011-1.242-.14-2.48-.45-3.683-.262-1.028-.708-2-1.317-2.867-.566-.783-1.308-1.423-2.167-1.867-.916-.454-1.927-.682-2.95-.666-1.033-.018-2.056.21-2.983.666-.855.45-1.592 1.095-2.15 1.884-.61.867-1.055 1.839-1.317 2.866-.296 1.205-.441 2.443-.433 3.684-.009 1.252.137 2.5.433 3.716.261 1.054.707 2.053 1.317 2.95 1.15 1.697 3.085 2.69 5.133 2.634v-.017zM181.933 2.133L189.267 17.6 196.083 2.133 197.633 2.133 188.817 22.017 187.967 22.017 178.483 2.133zM204.05 2.133L207.383 2.133 207.383 21.567 204.05 21.567zM216.333 2.133h6.467c1.733-.024 3.463.167 5.15.567 1.315.313 2.54.923 3.583 1.783 1.045.882 1.887 1.98 2.467 3.217.56 1.247.844 2.6.833 3.967.007 1.32-.248 2.628-.75 3.85-.481 1.192-1.221 2.262-2.166 3.133-1.035.95-2.255 1.677-3.584 2.133-1.54.544-3.166.809-4.8.784h-7.2V2.133zm3.334 18.017h3.466c1.053.006 2.098-.18 3.084-.55.955-.366 1.819-.935 2.533-1.667.73-.747 1.298-1.638 1.667-2.616.433-1.156.642-2.383.616-3.617.015-1.138-.183-2.268-.583-3.333-.371-.967-.939-1.847-1.667-2.584-.715-.722-1.572-1.29-2.516-1.666-1.012-.407-2.094-.61-3.184-.6H219.6l.067 16.633zM73.183 35l6.1 13.333h-2.216l-1.984-4.316h-5.55L67.5 48.233h-1.1L72.633 34.9l.55.1zm-3.333 8.1h4.767l-2.284-5.15-2.483 5.15zM117.817 35.283L117.817 36.117 113.133 36.117 113.133 48.233 110.95 48.233 110.95 36.117 106.267 36.117 106.267 35.283zM146.5 35.283L148.683 35.283 148.683 47.383 155.2 47.383 155.2 48.233 146.5 48.233zM188.783 35l6.084 13.333h-2.217l-1.967-4.316h-5.566l-2.034 4.316h-1.1L188.233 35h.55zm-3.333 8.1h4.783l-2.35-5.133-2.433 5.133zM227.467 47.717c.32-.004.64-.049.95-.134.3-.081.582-.217.833-.4.245-.164.45-.38.6-.633.15-.264.225-.563.217-.867.005-.377-.1-.747-.3-1.066-.233-.32-.507-.606-.817-.85-.353-.277-.732-.517-1.133-.717-.417-.233-.85-.467-1.3-.683-.45-.217-.884-.467-1.3-.717-.416-.237-.802-.522-1.15-.85-.322-.298-.592-.647-.8-1.033-.207-.408-.31-.86-.3-1.317-.009-.47.082-.935.266-1.367.189-.422.468-.797.817-1.1.393-.328.846-.577 1.333-.733.583-.182 1.19-.272 1.8-.267.562-.01 1.123.057 1.667.2.455.113.885.31 1.267.584.366.25.683.566.933.933.268.395.476.827.617 1.283l-1.117.517c-.126-.384-.294-.753-.5-1.1-.193-.314-.435-.596-.717-.833-.288-.238-.615-.424-.966-.55-.405-.125-.827-.187-1.25-.184-.368-.01-.735.047-1.084.167-.275.102-.53.255-.75.45-.4.325-.628.817-.616 1.333-.003.338.109.667.316.934.23.307.505.577.817.8.379.269.774.514 1.183.733l1.35.7 1.334.75c.422.248.819.538 1.183.867.327.295.608.637.833 1.016.205.379.308.804.3 1.234.001.497-.095.99-.283 1.45-.202.455-.504.86-.883 1.183-.427.355-.92.621-1.45.783-.657.212-1.344.314-2.034.3-.562.007-1.122-.06-1.666-.2-.46-.121-.895-.324-1.284-.6-.373-.26-.7-.58-.966-.95-.276-.395-.495-.827-.65-1.283l1.15-.483c.136.399.32.78.55 1.133.223.326.5.613.816.85.31.23.652.41 1.017.533.377.12.77.182 1.167.184z"/>
        <rect width="23.367" height="23.367" y="5.5" fill="#EC1E24" rx=".5"/>
        <rect width="27.267" height="19.483" x="27.267" y="17.15" fill="#EC1E24" rx=".5"/>
        <rect width="15.583" height="15.583" x="7.8" y="32.767" fill="#EC1E24" rx=".5"/>
        <rect width="11.683" height="11.683" x="27.267" y="1.55" fill="#EC1E24" rx=".5"/>
    </g>
</svg>
